<?xml version="1.0"?>
<svg xmlns="http://www.w3.org/2000/svg" xmlns:xlink="http://www.w3.org/1999/xlink" version="1.1" width="500px" height="500px" viewBox="0 0 500 500"><defs><rect id="block" width="8.9795918367" height="8.9795918367" fill="#000000" fill-opacity="1"/></defs><rect x="0" y="0" width="500" height="500" fill="#ffffff" fill-opacity="0"/><use x="30.0000000000" y="30.0000000000" xlink:href="#block"/><use x="38.9795918367" y="30.0000000000" xlink:href="#block"/><use x="47.9591836735" y="30.0000000000" xlink:href="#block"/><use x="56.9387755102" y="30.0000000000" xlink:href="#block"/><use x="65.9183673469" y="30.0000000000" xlink:href="#block"/><use x="74.8979591837" y="30.0000000000" xlink:href="#block"/><use x="83.8775510204" y="30.0000000000" xlink:href="#block"/><use x="110.8163265306" y="30.0000000000" xlink:href="#block"/><use x="119.7959183673" y="30.0000000000" xlink:href="#block"/><use x="128.7755102041" y="30.0000000000" xlink:href="#block"/><use x="146.7346938776" y="30.0000000000" xlink:href="#block"/><use x="182.6530612245" y="30.0000000000" xlink:href="#block"/><use x="191.6326530612" y="30.0000000000" xlink:href="#block"/><use x="218.5714285714" y="30.0000000000" xlink:href="#block"/><use x="245.5102040816" y="30.0000000000" xlink:href="#block"/><use x="254.4897959184" y="30.0000000000" xlink:href="#block"/><use x="308.3673469388" y="30.0000000000" xlink:href="#block"/><use x="326.3265306122" y="30.0000000000" xlink:href="#block"/><use x="335.3061224490" y="30.0000000000" xlink:href="#block"/><use x="362.2448979592" y="30.0000000000" xlink:href="#block"/><use x="389.1836734694" y="30.0000000000" xlink:href="#block"/><use x="407.1428571429" y="30.0000000000" xlink:href="#block"/><use x="416.1224489796" y="30.0000000000" xlink:href="#block"/><use x="425.1020408163" y="30.0000000000" xlink:href="#block"/><use x="434.0816326531" y="30.0000000000" xlink:href="#block"/><use x="443.0612244898" y="30.0000000000" xlink:href="#block"/><use x="452.0408163265" y="30.0000000000" xlink:href="#block"/><use x="461.0204081633" y="30.0000000000" xlink:href="#block"/><use x="30.0000000000" y="38.9795918367" xlink:href="#block"/><use x="83.8775510204" y="38.9795918367" xlink:href="#block"/><use x="110.8163265306" y="38.9795918367" xlink:href="#block"/><use x="119.7959183673" y="38.9795918367" xlink:href="#block"/><use x="137.7551020408" y="38.9795918367" xlink:href="#block"/><use x="155.7142857143" y="38.9795918367" xlink:href="#block"/><use x="191.6326530612" y="38.9795918367" xlink:href="#block"/><use x="200.6122448980" y="38.9795918367" xlink:href="#block"/><use x="218.5714285714" y="38.9795918367" xlink:href="#block"/><use x="227.5510204082" y="38.9795918367" xlink:href="#block"/><use x="245.5102040816" y="38.9795918367" xlink:href="#block"/><use x="254.4897959184" y="38.9795918367" xlink:href="#block"/><use x="281.4285714286" y="38.9795918367" xlink:href="#block"/><use x="326.3265306122" y="38.9795918367" xlink:href="#block"/><use x="371.2244897959" y="38.9795918367" xlink:href="#block"/><use x="380.2040816327" y="38.9795918367" xlink:href="#block"/><use x="389.1836734694" y="38.9795918367" xlink:href="#block"/><use x="407.1428571429" y="38.9795918367" xlink:href="#block"/><use x="461.0204081633" y="38.9795918367" xlink:href="#block"/><use x="30.0000000000" y="47.9591836735" xlink:href="#block"/><use x="47.9591836735" y="47.9591836735" xlink:href="#block"/><use x="56.9387755102" y="47.9591836735" xlink:href="#block"/><use x="65.9183673469" y="47.9591836735" xlink:href="#block"/><use x="83.8775510204" y="47.9591836735" xlink:href="#block"/><use x="119.7959183673" y="47.9591836735" xlink:href="#block"/><use x="128.7755102041" y="47.9591836735" xlink:href="#block"/><use x="137.7551020408" y="47.9591836735" xlink:href="#block"/><use x="146.7346938776" y="47.9591836735" xlink:href="#block"/><use x="164.6938775510" y="47.9591836735" xlink:href="#block"/><use x="173.6734693878" y="47.9591836735" xlink:href="#block"/><use x="191.6326530612" y="47.9591836735" xlink:href="#block"/><use x="200.6122448980" y="47.9591836735" xlink:href="#block"/><use x="209.5918367347" y="47.9591836735" xlink:href="#block"/><use x="227.5510204082" y="47.9591836735" xlink:href="#block"/><use x="236.5306122449" y="47.9591836735" xlink:href="#block"/><use x="272.4489795918" y="47.9591836735" xlink:href="#block"/><use x="290.4081632653" y="47.9591836735" xlink:href="#block"/><use x="317.3469387755" y="47.9591836735" xlink:href="#block"/><use x="326.3265306122" y="47.9591836735" xlink:href="#block"/><use x="335.3061224490" y="47.9591836735" xlink:href="#block"/><use x="344.2857142857" y="47.9591836735" xlink:href="#block"/><use x="380.2040816327" y="47.9591836735" xlink:href="#block"/><use x="389.1836734694" y="47.9591836735" xlink:href="#block"/><use x="407.1428571429" y="47.9591836735" xlink:href="#block"/><use x="425.1020408163" y="47.9591836735" xlink:href="#block"/><use x="434.0816326531" y="47.9591836735" xlink:href="#block"/><use x="443.0612244898" y="47.9591836735" xlink:href="#block"/><use x="461.0204081633" y="47.9591836735" xlink:href="#block"/><use x="30.0000000000" y="56.9387755102" xlink:href="#block"/><use x="47.9591836735" y="56.9387755102" xlink:href="#block"/><use x="56.9387755102" y="56.9387755102" xlink:href="#block"/><use x="65.9183673469" y="56.9387755102" xlink:href="#block"/><use x="83.8775510204" y="56.9387755102" xlink:href="#block"/><use x="119.7959183673" y="56.9387755102" xlink:href="#block"/><use x="137.7551020408" y="56.9387755102" xlink:href="#block"/><use x="173.6734693878" y="56.9387755102" xlink:href="#block"/><use x="191.6326530612" y="56.9387755102" xlink:href="#block"/><use x="200.6122448980" y="56.9387755102" xlink:href="#block"/><use x="209.5918367347" y="56.9387755102" xlink:href="#block"/><use x="227.5510204082" y="56.9387755102" xlink:href="#block"/><use x="236.5306122449" y="56.9387755102" xlink:href="#block"/><use x="317.3469387755" y="56.9387755102" xlink:href="#block"/><use x="326.3265306122" y="56.9387755102" xlink:href="#block"/><use x="335.3061224490" y="56.9387755102" xlink:href="#block"/><use x="344.2857142857" y="56.9387755102" xlink:href="#block"/><use x="353.2653061224" y="56.9387755102" xlink:href="#block"/><use x="380.2040816327" y="56.9387755102" xlink:href="#block"/><use x="407.1428571429" y="56.9387755102" xlink:href="#block"/><use x="425.1020408163" y="56.9387755102" xlink:href="#block"/><use x="434.0816326531" y="56.9387755102" xlink:href="#block"/><use x="443.0612244898" y="56.9387755102" xlink:href="#block"/><use x="461.0204081633" y="56.9387755102" xlink:href="#block"/><use x="30.0000000000" y="65.9183673469" xlink:href="#block"/><use x="47.9591836735" y="65.9183673469" xlink:href="#block"/><use x="56.9387755102" y="65.9183673469" xlink:href="#block"/><use x="65.9183673469" y="65.9183673469" xlink:href="#block"/><use x="83.8775510204" y="65.9183673469" xlink:href="#block"/><use x="101.8367346939" y="65.9183673469" xlink:href="#block"/><use x="164.6938775510" y="65.9183673469" xlink:href="#block"/><use x="191.6326530612" y="65.9183673469" xlink:href="#block"/><use x="209.5918367347" y="65.9183673469" xlink:href="#block"/><use x="227.5510204082" y="65.9183673469" xlink:href="#block"/><use x="236.5306122449" y="65.9183673469" xlink:href="#block"/><use x="245.5102040816" y="65.9183673469" xlink:href="#block"/><use x="254.4897959184" y="65.9183673469" xlink:href="#block"/><use x="263.4693877551" y="65.9183673469" xlink:href="#block"/><use x="272.4489795918" y="65.9183673469" xlink:href="#block"/><use x="290.4081632653" y="65.9183673469" xlink:href="#block"/><use x="299.3877551020" y="65.9183673469" xlink:href="#block"/><use x="308.3673469388" y="65.9183673469" xlink:href="#block"/><use x="317.3469387755" y="65.9183673469" xlink:href="#block"/><use x="335.3061224490" y="65.9183673469" xlink:href="#block"/><use x="353.2653061224" y="65.9183673469" xlink:href="#block"/><use x="407.1428571429" y="65.9183673469" xlink:href="#block"/><use x="425.1020408163" y="65.9183673469" xlink:href="#block"/><use x="434.0816326531" y="65.9183673469" xlink:href="#block"/><use x="443.0612244898" y="65.9183673469" xlink:href="#block"/><use x="461.0204081633" y="65.9183673469" xlink:href="#block"/><use x="30.0000000000" y="74.8979591837" xlink:href="#block"/><use x="83.8775510204" y="74.8979591837" xlink:href="#block"/><use x="146.7346938776" y="74.8979591837" xlink:href="#block"/><use x="164.6938775510" y="74.8979591837" xlink:href="#block"/><use x="191.6326530612" y="74.8979591837" xlink:href="#block"/><use x="209.5918367347" y="74.8979591837" xlink:href="#block"/><use x="227.5510204082" y="74.8979591837" xlink:href="#block"/><use x="263.4693877551" y="74.8979591837" xlink:href="#block"/><use x="272.4489795918" y="74.8979591837" xlink:href="#block"/><use x="290.4081632653" y="74.8979591837" xlink:href="#block"/><use x="308.3673469388" y="74.8979591837" xlink:href="#block"/><use x="317.3469387755" y="74.8979591837" xlink:href="#block"/><use x="326.3265306122" y="74.8979591837" xlink:href="#block"/><use x="335.3061224490" y="74.8979591837" xlink:href="#block"/><use x="344.2857142857" y="74.8979591837" xlink:href="#block"/><use x="371.2244897959" y="74.8979591837" xlink:href="#block"/><use x="407.1428571429" y="74.8979591837" xlink:href="#block"/><use x="461.0204081633" y="74.8979591837" xlink:href="#block"/><use x="30.0000000000" y="83.8775510204" xlink:href="#block"/><use x="38.9795918367" y="83.8775510204" xlink:href="#block"/><use x="47.9591836735" y="83.8775510204" xlink:href="#block"/><use x="56.9387755102" y="83.8775510204" xlink:href="#block"/><use x="65.9183673469" y="83.8775510204" xlink:href="#block"/><use x="74.8979591837" y="83.8775510204" xlink:href="#block"/><use x="83.8775510204" y="83.8775510204" xlink:href="#block"/><use x="101.8367346939" y="83.8775510204" xlink:href="#block"/><use x="119.7959183673" y="83.8775510204" xlink:href="#block"/><use x="137.7551020408" y="83.8775510204" xlink:href="#block"/><use x="155.7142857143" y="83.8775510204" xlink:href="#block"/><use x="173.6734693878" y="83.8775510204" xlink:href="#block"/><use x="191.6326530612" y="83.8775510204" xlink:href="#block"/><use x="209.5918367347" y="83.8775510204" xlink:href="#block"/><use x="227.5510204082" y="83.8775510204" xlink:href="#block"/><use x="245.5102040816" y="83.8775510204" xlink:href="#block"/><use x="263.4693877551" y="83.8775510204" xlink:href="#block"/><use x="281.4285714286" y="83.8775510204" xlink:href="#block"/><use x="299.3877551020" y="83.8775510204" xlink:href="#block"/><use x="317.3469387755" y="83.8775510204" xlink:href="#block"/><use x="335.3061224490" y="83.8775510204" xlink:href="#block"/><use x="353.2653061224" y="83.8775510204" xlink:href="#block"/><use x="371.2244897959" y="83.8775510204" xlink:href="#block"/><use x="389.1836734694" y="83.8775510204" xlink:href="#block"/><use x="407.1428571429" y="83.8775510204" xlink:href="#block"/><use x="416.1224489796" y="83.8775510204" xlink:href="#block"/><use x="425.1020408163" y="83.8775510204" xlink:href="#block"/><use x="434.0816326531" y="83.8775510204" xlink:href="#block"/><use x="443.0612244898" y="83.8775510204" xlink:href="#block"/><use x="452.0408163265" y="83.8775510204" xlink:href="#block"/><use x="461.0204081633" y="83.8775510204" xlink:href="#block"/><use x="101.8367346939" y="92.8571428571" xlink:href="#block"/><use x="110.8163265306" y="92.8571428571" xlink:href="#block"/><use x="128.7755102041" y="92.8571428571" xlink:href="#block"/><use x="137.7551020408" y="92.8571428571" xlink:href="#block"/><use x="164.6938775510" y="92.8571428571" xlink:href="#block"/><use x="173.6734693878" y="92.8571428571" xlink:href="#block"/><use x="191.6326530612" y="92.8571428571" xlink:href="#block"/><use x="200.6122448980" y="92.8571428571" xlink:href="#block"/><use x="209.5918367347" y="92.8571428571" xlink:href="#block"/><use x="227.5510204082" y="92.8571428571" xlink:href="#block"/><use x="263.4693877551" y="92.8571428571" xlink:href="#block"/><use x="290.4081632653" y="92.8571428571" xlink:href="#block"/><use x="308.3673469388" y="92.8571428571" xlink:href="#block"/><use x="326.3265306122" y="92.8571428571" xlink:href="#block"/><use x="344.2857142857" y="92.8571428571" xlink:href="#block"/><use x="371.2244897959" y="92.8571428571" xlink:href="#block"/><use x="380.2040816327" y="92.8571428571" xlink:href="#block"/><use x="47.9591836735" y="101.8367346939" xlink:href="#block"/><use x="56.9387755102" y="101.8367346939" xlink:href="#block"/><use x="83.8775510204" y="101.8367346939" xlink:href="#block"/><use x="92.8571428571" y="101.8367346939" xlink:href="#block"/><use x="101.8367346939" y="101.8367346939" xlink:href="#block"/><use x="110.8163265306" y="101.8367346939" xlink:href="#block"/><use x="119.7959183673" y="101.8367346939" xlink:href="#block"/><use x="128.7755102041" y="101.8367346939" xlink:href="#block"/><use x="164.6938775510" y="101.8367346939" xlink:href="#block"/><use x="182.6530612245" y="101.8367346939" xlink:href="#block"/><use x="191.6326530612" y="101.8367346939" xlink:href="#block"/><use x="200.6122448980" y="101.8367346939" xlink:href="#block"/><use x="227.5510204082" y="101.8367346939" xlink:href="#block"/><use x="236.5306122449" y="101.8367346939" xlink:href="#block"/><use x="245.5102040816" y="101.8367346939" xlink:href="#block"/><use x="254.4897959184" y="101.8367346939" xlink:href="#block"/><use x="263.4693877551" y="101.8367346939" xlink:href="#block"/><use x="281.4285714286" y="101.8367346939" xlink:href="#block"/><use x="290.4081632653" y="101.8367346939" xlink:href="#block"/><use x="317.3469387755" y="101.8367346939" xlink:href="#block"/><use x="344.2857142857" y="101.8367346939" xlink:href="#block"/><use x="353.2653061224" y="101.8367346939" xlink:href="#block"/><use x="362.2448979592" y="101.8367346939" xlink:href="#block"/><use x="371.2244897959" y="101.8367346939" xlink:href="#block"/><use x="380.2040816327" y="101.8367346939" xlink:href="#block"/><use x="389.1836734694" y="101.8367346939" xlink:href="#block"/><use x="398.1632653061" y="101.8367346939" xlink:href="#block"/><use x="407.1428571429" y="101.8367346939" xlink:href="#block"/><use x="425.1020408163" y="101.8367346939" xlink:href="#block"/><use x="38.9795918367" y="110.8163265306" xlink:href="#block"/><use x="56.9387755102" y="110.8163265306" xlink:href="#block"/><use x="65.9183673469" y="110.8163265306" xlink:href="#block"/><use x="74.8979591837" y="110.8163265306" xlink:href="#block"/><use x="92.8571428571" y="110.8163265306" xlink:href="#block"/><use x="101.8367346939" y="110.8163265306" xlink:href="#block"/><use x="110.8163265306" y="110.8163265306" xlink:href="#block"/><use x="155.7142857143" y="110.8163265306" xlink:href="#block"/><use x="164.6938775510" y="110.8163265306" xlink:href="#block"/><use x="191.6326530612" y="110.8163265306" xlink:href="#block"/><use x="200.6122448980" y="110.8163265306" xlink:href="#block"/><use x="245.5102040816" y="110.8163265306" xlink:href="#block"/><use x="254.4897959184" y="110.8163265306" xlink:href="#block"/><use x="317.3469387755" y="110.8163265306" xlink:href="#block"/><use x="326.3265306122" y="110.8163265306" xlink:href="#block"/><use x="335.3061224490" y="110.8163265306" xlink:href="#block"/><use x="362.2448979592" y="110.8163265306" xlink:href="#block"/><use x="371.2244897959" y="110.8163265306" xlink:href="#block"/><use x="380.2040816327" y="110.8163265306" xlink:href="#block"/><use x="389.1836734694" y="110.8163265306" xlink:href="#block"/><use x="398.1632653061" y="110.8163265306" xlink:href="#block"/><use x="425.1020408163" y="110.8163265306" xlink:href="#block"/><use x="452.0408163265" y="110.8163265306" xlink:href="#block"/><use x="461.0204081633" y="110.8163265306" xlink:href="#block"/><use x="30.0000000000" y="119.7959183673" xlink:href="#block"/><use x="38.9795918367" y="119.7959183673" xlink:href="#block"/><use x="47.9591836735" y="119.7959183673" xlink:href="#block"/><use x="56.9387755102" y="119.7959183673" xlink:href="#block"/><use x="65.9183673469" y="119.7959183673" xlink:href="#block"/><use x="83.8775510204" y="119.7959183673" xlink:href="#block"/><use x="92.8571428571" y="119.7959183673" xlink:href="#block"/><use x="110.8163265306" y="119.7959183673" xlink:href="#block"/><use x="137.7551020408" y="119.7959183673" xlink:href="#block"/><use x="155.7142857143" y="119.7959183673" xlink:href="#block"/><use x="191.6326530612" y="119.7959183673" xlink:href="#block"/><use x="200.6122448980" y="119.7959183673" xlink:href="#block"/><use x="263.4693877551" y="119.7959183673" xlink:href="#block"/><use x="272.4489795918" y="119.7959183673" xlink:href="#block"/><use x="299.3877551020" y="119.7959183673" xlink:href="#block"/><use x="308.3673469388" y="119.7959183673" xlink:href="#block"/><use x="317.3469387755" y="119.7959183673" xlink:href="#block"/><use x="326.3265306122" y="119.7959183673" xlink:href="#block"/><use x="335.3061224490" y="119.7959183673" xlink:href="#block"/><use x="353.2653061224" y="119.7959183673" xlink:href="#block"/><use x="362.2448979592" y="119.7959183673" xlink:href="#block"/><use x="389.1836734694" y="119.7959183673" xlink:href="#block"/><use x="407.1428571429" y="119.7959183673" xlink:href="#block"/><use x="425.1020408163" y="119.7959183673" xlink:href="#block"/><use x="443.0612244898" y="119.7959183673" xlink:href="#block"/><use x="30.0000000000" y="128.7755102041" xlink:href="#block"/><use x="38.9795918367" y="128.7755102041" xlink:href="#block"/><use x="56.9387755102" y="128.7755102041" xlink:href="#block"/><use x="119.7959183673" y="128.7755102041" xlink:href="#block"/><use x="137.7551020408" y="128.7755102041" xlink:href="#block"/><use x="173.6734693878" y="128.7755102041" xlink:href="#block"/><use x="191.6326530612" y="128.7755102041" xlink:href="#block"/><use x="200.6122448980" y="128.7755102041" xlink:href="#block"/><use x="209.5918367347" y="128.7755102041" xlink:href="#block"/><use x="218.5714285714" y="128.7755102041" xlink:href="#block"/><use x="227.5510204082" y="128.7755102041" xlink:href="#block"/><use x="236.5306122449" y="128.7755102041" xlink:href="#block"/><use x="245.5102040816" y="128.7755102041" xlink:href="#block"/><use x="272.4489795918" y="128.7755102041" xlink:href="#block"/><use x="290.4081632653" y="128.7755102041" xlink:href="#block"/><use x="308.3673469388" y="128.7755102041" xlink:href="#block"/><use x="317.3469387755" y="128.7755102041" xlink:href="#block"/><use x="335.3061224490" y="128.7755102041" xlink:href="#block"/><use x="353.2653061224" y="128.7755102041" xlink:href="#block"/><use x="380.2040816327" y="128.7755102041" xlink:href="#block"/><use x="389.1836734694" y="128.7755102041" xlink:href="#block"/><use x="398.1632653061" y="128.7755102041" xlink:href="#block"/><use x="425.1020408163" y="128.7755102041" xlink:href="#block"/><use x="434.0816326531" y="128.7755102041" xlink:href="#block"/><use x="452.0408163265" y="128.7755102041" xlink:href="#block"/><use x="461.0204081633" y="128.7755102041" xlink:href="#block"/><use x="30.0000000000" y="137.7551020408" xlink:href="#block"/><use x="56.9387755102" y="137.7551020408" xlink:href="#block"/><use x="83.8775510204" y="137.7551020408" xlink:href="#block"/><use x="101.8367346939" y="137.7551020408" xlink:href="#block"/><use x="128.7755102041" y="137.7551020408" xlink:href="#block"/><use x="137.7551020408" y="137.7551020408" xlink:href="#block"/><use x="155.7142857143" y="137.7551020408" xlink:href="#block"/><use x="164.6938775510" y="137.7551020408" xlink:href="#block"/><use x="182.6530612245" y="137.7551020408" xlink:href="#block"/><use x="191.6326530612" y="137.7551020408" xlink:href="#block"/><use x="209.5918367347" y="137.7551020408" xlink:href="#block"/><use x="218.5714285714" y="137.7551020408" xlink:href="#block"/><use x="254.4897959184" y="137.7551020408" xlink:href="#block"/><use x="299.3877551020" y="137.7551020408" xlink:href="#block"/><use x="335.3061224490" y="137.7551020408" xlink:href="#block"/><use x="353.2653061224" y="137.7551020408" xlink:href="#block"/><use x="371.2244897959" y="137.7551020408" xlink:href="#block"/><use x="389.1836734694" y="137.7551020408" xlink:href="#block"/><use x="416.1224489796" y="137.7551020408" xlink:href="#block"/><use x="434.0816326531" y="137.7551020408" xlink:href="#block"/><use x="452.0408163265" y="137.7551020408" xlink:href="#block"/><use x="461.0204081633" y="137.7551020408" xlink:href="#block"/><use x="38.9795918367" y="146.7346938776" xlink:href="#block"/><use x="47.9591836735" y="146.7346938776" xlink:href="#block"/><use x="56.9387755102" y="146.7346938776" xlink:href="#block"/><use x="65.9183673469" y="146.7346938776" xlink:href="#block"/><use x="74.8979591837" y="146.7346938776" xlink:href="#block"/><use x="92.8571428571" y="146.7346938776" xlink:href="#block"/><use x="101.8367346939" y="146.7346938776" xlink:href="#block"/><use x="146.7346938776" y="146.7346938776" xlink:href="#block"/><use x="173.6734693878" y="146.7346938776" xlink:href="#block"/><use x="200.6122448980" y="146.7346938776" xlink:href="#block"/><use x="209.5918367347" y="146.7346938776" xlink:href="#block"/><use x="218.5714285714" y="146.7346938776" xlink:href="#block"/><use x="227.5510204082" y="146.7346938776" xlink:href="#block"/><use x="236.5306122449" y="146.7346938776" xlink:href="#block"/><use x="254.4897959184" y="146.7346938776" xlink:href="#block"/><use x="272.4489795918" y="146.7346938776" xlink:href="#block"/><use x="308.3673469388" y="146.7346938776" xlink:href="#block"/><use x="353.2653061224" y="146.7346938776" xlink:href="#block"/><use x="416.1224489796" y="146.7346938776" xlink:href="#block"/><use x="452.0408163265" y="146.7346938776" xlink:href="#block"/><use x="461.0204081633" y="146.7346938776" xlink:href="#block"/><use x="56.9387755102" y="155.7142857143" xlink:href="#block"/><use x="65.9183673469" y="155.7142857143" xlink:href="#block"/><use x="74.8979591837" y="155.7142857143" xlink:href="#block"/><use x="83.8775510204" y="155.7142857143" xlink:href="#block"/><use x="101.8367346939" y="155.7142857143" xlink:href="#block"/><use x="110.8163265306" y="155.7142857143" xlink:href="#block"/><use x="137.7551020408" y="155.7142857143" xlink:href="#block"/><use x="146.7346938776" y="155.7142857143" xlink:href="#block"/><use x="191.6326530612" y="155.7142857143" xlink:href="#block"/><use x="227.5510204082" y="155.7142857143" xlink:href="#block"/><use x="236.5306122449" y="155.7142857143" xlink:href="#block"/><use x="245.5102040816" y="155.7142857143" xlink:href="#block"/><use x="281.4285714286" y="155.7142857143" xlink:href="#block"/><use x="299.3877551020" y="155.7142857143" xlink:href="#block"/><use x="308.3673469388" y="155.7142857143" xlink:href="#block"/><use x="317.3469387755" y="155.7142857143" xlink:href="#block"/><use x="335.3061224490" y="155.7142857143" xlink:href="#block"/><use x="380.2040816327" y="155.7142857143" xlink:href="#block"/><use x="398.1632653061" y="155.7142857143" xlink:href="#block"/><use x="407.1428571429" y="155.7142857143" xlink:href="#block"/><use x="434.0816326531" y="155.7142857143" xlink:href="#block"/><use x="47.9591836735" y="164.6938775510" xlink:href="#block"/><use x="56.9387755102" y="164.6938775510" xlink:href="#block"/><use x="110.8163265306" y="164.6938775510" xlink:href="#block"/><use x="128.7755102041" y="164.6938775510" xlink:href="#block"/><use x="155.7142857143" y="164.6938775510" xlink:href="#block"/><use x="173.6734693878" y="164.6938775510" xlink:href="#block"/><use x="191.6326530612" y="164.6938775510" xlink:href="#block"/><use x="209.5918367347" y="164.6938775510" xlink:href="#block"/><use x="218.5714285714" y="164.6938775510" xlink:href="#block"/><use x="227.5510204082" y="164.6938775510" xlink:href="#block"/><use x="236.5306122449" y="164.6938775510" xlink:href="#block"/><use x="263.4693877551" y="164.6938775510" xlink:href="#block"/><use x="281.4285714286" y="164.6938775510" xlink:href="#block"/><use x="299.3877551020" y="164.6938775510" xlink:href="#block"/><use x="326.3265306122" y="164.6938775510" xlink:href="#block"/><use x="344.2857142857" y="164.6938775510" xlink:href="#block"/><use x="407.1428571429" y="164.6938775510" xlink:href="#block"/><use x="416.1224489796" y="164.6938775510" xlink:href="#block"/><use x="425.1020408163" y="164.6938775510" xlink:href="#block"/><use x="434.0816326531" y="164.6938775510" xlink:href="#block"/><use x="452.0408163265" y="164.6938775510" xlink:href="#block"/><use x="30.0000000000" y="173.6734693878" xlink:href="#block"/><use x="47.9591836735" y="173.6734693878" xlink:href="#block"/><use x="65.9183673469" y="173.6734693878" xlink:href="#block"/><use x="83.8775510204" y="173.6734693878" xlink:href="#block"/><use x="101.8367346939" y="173.6734693878" xlink:href="#block"/><use x="137.7551020408" y="173.6734693878" xlink:href="#block"/><use x="146.7346938776" y="173.6734693878" xlink:href="#block"/><use x="182.6530612245" y="173.6734693878" xlink:href="#block"/><use x="191.6326530612" y="173.6734693878" xlink:href="#block"/><use x="200.6122448980" y="173.6734693878" xlink:href="#block"/><use x="209.5918367347" y="173.6734693878" xlink:href="#block"/><use x="227.5510204082" y="173.6734693878" xlink:href="#block"/><use x="245.5102040816" y="173.6734693878" xlink:href="#block"/><use x="263.4693877551" y="173.6734693878" xlink:href="#block"/><use x="272.4489795918" y="173.6734693878" xlink:href="#block"/><use x="281.4285714286" y="173.6734693878" xlink:href="#block"/><use x="290.4081632653" y="173.6734693878" xlink:href="#block"/><use x="326.3265306122" y="173.6734693878" xlink:href="#block"/><use x="344.2857142857" y="173.6734693878" xlink:href="#block"/><use x="362.2448979592" y="173.6734693878" xlink:href="#block"/><use x="407.1428571429" y="173.6734693878" xlink:href="#block"/><use x="416.1224489796" y="173.6734693878" xlink:href="#block"/><use x="425.1020408163" y="173.6734693878" xlink:href="#block"/><use x="30.0000000000" y="182.6530612245" xlink:href="#block"/><use x="38.9795918367" y="182.6530612245" xlink:href="#block"/><use x="47.9591836735" y="182.6530612245" xlink:href="#block"/><use x="92.8571428571" y="182.6530612245" xlink:href="#block"/><use x="119.7959183673" y="182.6530612245" xlink:href="#block"/><use x="164.6938775510" y="182.6530612245" xlink:href="#block"/><use x="182.6530612245" y="182.6530612245" xlink:href="#block"/><use x="209.5918367347" y="182.6530612245" xlink:href="#block"/><use x="227.5510204082" y="182.6530612245" xlink:href="#block"/><use x="245.5102040816" y="182.6530612245" xlink:href="#block"/><use x="272.4489795918" y="182.6530612245" xlink:href="#block"/><use x="290.4081632653" y="182.6530612245" xlink:href="#block"/><use x="299.3877551020" y="182.6530612245" xlink:href="#block"/><use x="308.3673469388" y="182.6530612245" xlink:href="#block"/><use x="335.3061224490" y="182.6530612245" xlink:href="#block"/><use x="353.2653061224" y="182.6530612245" xlink:href="#block"/><use x="362.2448979592" y="182.6530612245" xlink:href="#block"/><use x="389.1836734694" y="182.6530612245" xlink:href="#block"/><use x="425.1020408163" y="182.6530612245" xlink:href="#block"/><use x="434.0816326531" y="182.6530612245" xlink:href="#block"/><use x="443.0612244898" y="182.6530612245" xlink:href="#block"/><use x="452.0408163265" y="182.6530612245" xlink:href="#block"/><use x="30.0000000000" y="191.6326530612" xlink:href="#block"/><use x="38.9795918367" y="191.6326530612" xlink:href="#block"/><use x="83.8775510204" y="191.6326530612" xlink:href="#block"/><use x="92.8571428571" y="191.6326530612" xlink:href="#block"/><use x="101.8367346939" y="191.6326530612" xlink:href="#block"/><use x="110.8163265306" y="191.6326530612" xlink:href="#block"/><use x="128.7755102041" y="191.6326530612" xlink:href="#block"/><use x="137.7551020408" y="191.6326530612" xlink:href="#block"/><use x="146.7346938776" y="191.6326530612" xlink:href="#block"/><use x="164.6938775510" y="191.6326530612" xlink:href="#block"/><use x="182.6530612245" y="191.6326530612" xlink:href="#block"/><use x="191.6326530612" y="191.6326530612" xlink:href="#block"/><use x="218.5714285714" y="191.6326530612" xlink:href="#block"/><use x="281.4285714286" y="191.6326530612" xlink:href="#block"/><use x="290.4081632653" y="191.6326530612" xlink:href="#block"/><use x="299.3877551020" y="191.6326530612" xlink:href="#block"/><use x="308.3673469388" y="191.6326530612" xlink:href="#block"/><use x="344.2857142857" y="191.6326530612" xlink:href="#block"/><use x="353.2653061224" y="191.6326530612" xlink:href="#block"/><use x="362.2448979592" y="191.6326530612" xlink:href="#block"/><use x="371.2244897959" y="191.6326530612" xlink:href="#block"/><use x="389.1836734694" y="191.6326530612" xlink:href="#block"/><use x="416.1224489796" y="191.6326530612" xlink:href="#block"/><use x="434.0816326531" y="191.6326530612" xlink:href="#block"/><use x="461.0204081633" y="191.6326530612" xlink:href="#block"/><use x="30.0000000000" y="200.6122448980" xlink:href="#block"/><use x="38.9795918367" y="200.6122448980" xlink:href="#block"/><use x="56.9387755102" y="200.6122448980" xlink:href="#block"/><use x="65.9183673469" y="200.6122448980" xlink:href="#block"/><use x="74.8979591837" y="200.6122448980" xlink:href="#block"/><use x="101.8367346939" y="200.6122448980" xlink:href="#block"/><use x="110.8163265306" y="200.6122448980" xlink:href="#block"/><use x="119.7959183673" y="200.6122448980" xlink:href="#block"/><use x="137.7551020408" y="200.6122448980" xlink:href="#block"/><use x="146.7346938776" y="200.6122448980" xlink:href="#block"/><use x="173.6734693878" y="200.6122448980" xlink:href="#block"/><use x="182.6530612245" y="200.6122448980" xlink:href="#block"/><use x="191.6326530612" y="200.6122448980" xlink:href="#block"/><use x="209.5918367347" y="200.6122448980" xlink:href="#block"/><use x="218.5714285714" y="200.6122448980" xlink:href="#block"/><use x="227.5510204082" y="200.6122448980" xlink:href="#block"/><use x="254.4897959184" y="200.6122448980" xlink:href="#block"/><use x="272.4489795918" y="200.6122448980" xlink:href="#block"/><use x="281.4285714286" y="200.6122448980" xlink:href="#block"/><use x="308.3673469388" y="200.6122448980" xlink:href="#block"/><use x="317.3469387755" y="200.6122448980" xlink:href="#block"/><use x="326.3265306122" y="200.6122448980" xlink:href="#block"/><use x="344.2857142857" y="200.6122448980" xlink:href="#block"/><use x="371.2244897959" y="200.6122448980" xlink:href="#block"/><use x="425.1020408163" y="200.6122448980" xlink:href="#block"/><use x="434.0816326531" y="200.6122448980" xlink:href="#block"/><use x="443.0612244898" y="200.6122448980" xlink:href="#block"/><use x="452.0408163265" y="200.6122448980" xlink:href="#block"/><use x="461.0204081633" y="200.6122448980" xlink:href="#block"/><use x="30.0000000000" y="209.5918367347" xlink:href="#block"/><use x="38.9795918367" y="209.5918367347" xlink:href="#block"/><use x="47.9591836735" y="209.5918367347" xlink:href="#block"/><use x="56.9387755102" y="209.5918367347" xlink:href="#block"/><use x="65.9183673469" y="209.5918367347" xlink:href="#block"/><use x="74.8979591837" y="209.5918367347" xlink:href="#block"/><use x="83.8775510204" y="209.5918367347" xlink:href="#block"/><use x="92.8571428571" y="209.5918367347" xlink:href="#block"/><use x="119.7959183673" y="209.5918367347" xlink:href="#block"/><use x="146.7346938776" y="209.5918367347" xlink:href="#block"/><use x="155.7142857143" y="209.5918367347" xlink:href="#block"/><use x="182.6530612245" y="209.5918367347" xlink:href="#block"/><use x="191.6326530612" y="209.5918367347" xlink:href="#block"/><use x="200.6122448980" y="209.5918367347" xlink:href="#block"/><use x="218.5714285714" y="209.5918367347" xlink:href="#block"/><use x="236.5306122449" y="209.5918367347" xlink:href="#block"/><use x="263.4693877551" y="209.5918367347" xlink:href="#block"/><use x="272.4489795918" y="209.5918367347" xlink:href="#block"/><use x="281.4285714286" y="209.5918367347" xlink:href="#block"/><use x="317.3469387755" y="209.5918367347" xlink:href="#block"/><use x="326.3265306122" y="209.5918367347" xlink:href="#block"/><use x="344.2857142857" y="209.5918367347" xlink:href="#block"/><use x="371.2244897959" y="209.5918367347" xlink:href="#block"/><use x="380.2040816327" y="209.5918367347" xlink:href="#block"/><use x="398.1632653061" y="209.5918367347" xlink:href="#block"/><use x="407.1428571429" y="209.5918367347" xlink:href="#block"/><use x="434.0816326531" y="209.5918367347" xlink:href="#block"/><use x="443.0612244898" y="209.5918367347" xlink:href="#block"/><use x="452.0408163265" y="209.5918367347" xlink:href="#block"/><use x="38.9795918367" y="218.5714285714" xlink:href="#block"/><use x="56.9387755102" y="218.5714285714" xlink:href="#block"/><use x="74.8979591837" y="218.5714285714" xlink:href="#block"/><use x="92.8571428571" y="218.5714285714" xlink:href="#block"/><use x="110.8163265306" y="218.5714285714" xlink:href="#block"/><use x="119.7959183673" y="218.5714285714" xlink:href="#block"/><use x="128.7755102041" y="218.5714285714" xlink:href="#block"/><use x="146.7346938776" y="218.5714285714" xlink:href="#block"/><use x="155.7142857143" y="218.5714285714" xlink:href="#block"/><use x="164.6938775510" y="218.5714285714" xlink:href="#block"/><use x="182.6530612245" y="218.5714285714" xlink:href="#block"/><use x="200.6122448980" y="218.5714285714" xlink:href="#block"/><use x="218.5714285714" y="218.5714285714" xlink:href="#block"/><use x="227.5510204082" y="218.5714285714" xlink:href="#block"/><use x="236.5306122449" y="218.5714285714" xlink:href="#block"/><use x="254.4897959184" y="218.5714285714" xlink:href="#block"/><use x="263.4693877551" y="218.5714285714" xlink:href="#block"/><use x="281.4285714286" y="218.5714285714" xlink:href="#block"/><use x="290.4081632653" y="218.5714285714" xlink:href="#block"/><use x="326.3265306122" y="218.5714285714" xlink:href="#block"/><use x="371.2244897959" y="218.5714285714" xlink:href="#block"/><use x="398.1632653061" y="218.5714285714" xlink:href="#block"/><use x="407.1428571429" y="218.5714285714" xlink:href="#block"/><use x="416.1224489796" y="218.5714285714" xlink:href="#block"/><use x="425.1020408163" y="218.5714285714" xlink:href="#block"/><use x="461.0204081633" y="218.5714285714" xlink:href="#block"/><use x="56.9387755102" y="227.5510204082" xlink:href="#block"/><use x="65.9183673469" y="227.5510204082" xlink:href="#block"/><use x="74.8979591837" y="227.5510204082" xlink:href="#block"/><use x="83.8775510204" y="227.5510204082" xlink:href="#block"/><use x="92.8571428571" y="227.5510204082" xlink:href="#block"/><use x="101.8367346939" y="227.5510204082" xlink:href="#block"/><use x="128.7755102041" y="227.5510204082" xlink:href="#block"/><use x="137.7551020408" y="227.5510204082" xlink:href="#block"/><use x="155.7142857143" y="227.5510204082" xlink:href="#block"/><use x="164.6938775510" y="227.5510204082" xlink:href="#block"/><use x="191.6326530612" y="227.5510204082" xlink:href="#block"/><use x="218.5714285714" y="227.5510204082" xlink:href="#block"/><use x="227.5510204082" y="227.5510204082" xlink:href="#block"/><use x="236.5306122449" y="227.5510204082" xlink:href="#block"/><use x="245.5102040816" y="227.5510204082" xlink:href="#block"/><use x="254.4897959184" y="227.5510204082" xlink:href="#block"/><use x="263.4693877551" y="227.5510204082" xlink:href="#block"/><use x="281.4285714286" y="227.5510204082" xlink:href="#block"/><use x="308.3673469388" y="227.5510204082" xlink:href="#block"/><use x="389.1836734694" y="227.5510204082" xlink:href="#block"/><use x="398.1632653061" y="227.5510204082" xlink:href="#block"/><use x="407.1428571429" y="227.5510204082" xlink:href="#block"/><use x="416.1224489796" y="227.5510204082" xlink:href="#block"/><use x="425.1020408163" y="227.5510204082" xlink:href="#block"/><use x="443.0612244898" y="227.5510204082" xlink:href="#block"/><use x="30.0000000000" y="236.5306122449" xlink:href="#block"/><use x="47.9591836735" y="236.5306122449" xlink:href="#block"/><use x="56.9387755102" y="236.5306122449" xlink:href="#block"/><use x="65.9183673469" y="236.5306122449" xlink:href="#block"/><use x="101.8367346939" y="236.5306122449" xlink:href="#block"/><use x="110.8163265306" y="236.5306122449" xlink:href="#block"/><use x="137.7551020408" y="236.5306122449" xlink:href="#block"/><use x="146.7346938776" y="236.5306122449" xlink:href="#block"/><use x="155.7142857143" y="236.5306122449" xlink:href="#block"/><use x="173.6734693878" y="236.5306122449" xlink:href="#block"/><use x="182.6530612245" y="236.5306122449" xlink:href="#block"/><use x="191.6326530612" y="236.5306122449" xlink:href="#block"/><use x="200.6122448980" y="236.5306122449" xlink:href="#block"/><use x="209.5918367347" y="236.5306122449" xlink:href="#block"/><use x="227.5510204082" y="236.5306122449" xlink:href="#block"/><use x="263.4693877551" y="236.5306122449" xlink:href="#block"/><use x="299.3877551020" y="236.5306122449" xlink:href="#block"/><use x="308.3673469388" y="236.5306122449" xlink:href="#block"/><use x="326.3265306122" y="236.5306122449" xlink:href="#block"/><use x="335.3061224490" y="236.5306122449" xlink:href="#block"/><use x="380.2040816327" y="236.5306122449" xlink:href="#block"/><use x="389.1836734694" y="236.5306122449" xlink:href="#block"/><use x="425.1020408163" y="236.5306122449" xlink:href="#block"/><use x="434.0816326531" y="236.5306122449" xlink:href="#block"/><use x="443.0612244898" y="236.5306122449" xlink:href="#block"/><use x="461.0204081633" y="236.5306122449" xlink:href="#block"/><use x="65.9183673469" y="245.5102040816" xlink:href="#block"/><use x="83.8775510204" y="245.5102040816" xlink:href="#block"/><use x="101.8367346939" y="245.5102040816" xlink:href="#block"/><use x="119.7959183673" y="245.5102040816" xlink:href="#block"/><use x="155.7142857143" y="245.5102040816" xlink:href="#block"/><use x="164.6938775510" y="245.5102040816" xlink:href="#block"/><use x="173.6734693878" y="245.5102040816" xlink:href="#block"/><use x="191.6326530612" y="245.5102040816" xlink:href="#block"/><use x="209.5918367347" y="245.5102040816" xlink:href="#block"/><use x="218.5714285714" y="245.5102040816" xlink:href="#block"/><use x="227.5510204082" y="245.5102040816" xlink:href="#block"/><use x="245.5102040816" y="245.5102040816" xlink:href="#block"/><use x="263.4693877551" y="245.5102040816" xlink:href="#block"/><use x="272.4489795918" y="245.5102040816" xlink:href="#block"/><use x="308.3673469388" y="245.5102040816" xlink:href="#block"/><use x="317.3469387755" y="245.5102040816" xlink:href="#block"/><use x="326.3265306122" y="245.5102040816" xlink:href="#block"/><use x="335.3061224490" y="245.5102040816" xlink:href="#block"/><use x="344.2857142857" y="245.5102040816" xlink:href="#block"/><use x="353.2653061224" y="245.5102040816" xlink:href="#block"/><use x="371.2244897959" y="245.5102040816" xlink:href="#block"/><use x="389.1836734694" y="245.5102040816" xlink:href="#block"/><use x="407.1428571429" y="245.5102040816" xlink:href="#block"/><use x="425.1020408163" y="245.5102040816" xlink:href="#block"/><use x="434.0816326531" y="245.5102040816" xlink:href="#block"/><use x="38.9795918367" y="254.4897959184" xlink:href="#block"/><use x="47.9591836735" y="254.4897959184" xlink:href="#block"/><use x="56.9387755102" y="254.4897959184" xlink:href="#block"/><use x="65.9183673469" y="254.4897959184" xlink:href="#block"/><use x="101.8367346939" y="254.4897959184" xlink:href="#block"/><use x="110.8163265306" y="254.4897959184" xlink:href="#block"/><use x="119.7959183673" y="254.4897959184" xlink:href="#block"/><use x="128.7755102041" y="254.4897959184" xlink:href="#block"/><use x="146.7346938776" y="254.4897959184" xlink:href="#block"/><use x="182.6530612245" y="254.4897959184" xlink:href="#block"/><use x="191.6326530612" y="254.4897959184" xlink:href="#block"/><use x="200.6122448980" y="254.4897959184" xlink:href="#block"/><use x="209.5918367347" y="254.4897959184" xlink:href="#block"/><use x="218.5714285714" y="254.4897959184" xlink:href="#block"/><use x="227.5510204082" y="254.4897959184" xlink:href="#block"/><use x="263.4693877551" y="254.4897959184" xlink:href="#block"/><use x="272.4489795918" y="254.4897959184" xlink:href="#block"/><use x="344.2857142857" y="254.4897959184" xlink:href="#block"/><use x="353.2653061224" y="254.4897959184" xlink:href="#block"/><use x="362.2448979592" y="254.4897959184" xlink:href="#block"/><use x="389.1836734694" y="254.4897959184" xlink:href="#block"/><use x="425.1020408163" y="254.4897959184" xlink:href="#block"/><use x="434.0816326531" y="254.4897959184" xlink:href="#block"/><use x="452.0408163265" y="254.4897959184" xlink:href="#block"/><use x="65.9183673469" y="263.4693877551" xlink:href="#block"/><use x="74.8979591837" y="263.4693877551" xlink:href="#block"/><use x="83.8775510204" y="263.4693877551" xlink:href="#block"/><use x="92.8571428571" y="263.4693877551" xlink:href="#block"/><use x="101.8367346939" y="263.4693877551" xlink:href="#block"/><use x="119.7959183673" y="263.4693877551" xlink:href="#block"/><use x="137.7551020408" y="263.4693877551" xlink:href="#block"/><use x="146.7346938776" y="263.4693877551" xlink:href="#block"/><use x="155.7142857143" y="263.4693877551" xlink:href="#block"/><use x="164.6938775510" y="263.4693877551" xlink:href="#block"/><use x="191.6326530612" y="263.4693877551" xlink:href="#block"/><use x="200.6122448980" y="263.4693877551" xlink:href="#block"/><use x="227.5510204082" y="263.4693877551" xlink:href="#block"/><use x="236.5306122449" y="263.4693877551" xlink:href="#block"/><use x="245.5102040816" y="263.4693877551" xlink:href="#block"/><use x="254.4897959184" y="263.4693877551" xlink:href="#block"/><use x="263.4693877551" y="263.4693877551" xlink:href="#block"/><use x="272.4489795918" y="263.4693877551" xlink:href="#block"/><use x="299.3877551020" y="263.4693877551" xlink:href="#block"/><use x="317.3469387755" y="263.4693877551" xlink:href="#block"/><use x="326.3265306122" y="263.4693877551" xlink:href="#block"/><use x="335.3061224490" y="263.4693877551" xlink:href="#block"/><use x="344.2857142857" y="263.4693877551" xlink:href="#block"/><use x="380.2040816327" y="263.4693877551" xlink:href="#block"/><use x="389.1836734694" y="263.4693877551" xlink:href="#block"/><use x="398.1632653061" y="263.4693877551" xlink:href="#block"/><use x="407.1428571429" y="263.4693877551" xlink:href="#block"/><use x="416.1224489796" y="263.4693877551" xlink:href="#block"/><use x="425.1020408163" y="263.4693877551" xlink:href="#block"/><use x="461.0204081633" y="263.4693877551" xlink:href="#block"/><use x="30.0000000000" y="272.4489795918" xlink:href="#block"/><use x="38.9795918367" y="272.4489795918" xlink:href="#block"/><use x="47.9591836735" y="272.4489795918" xlink:href="#block"/><use x="74.8979591837" y="272.4489795918" xlink:href="#block"/><use x="128.7755102041" y="272.4489795918" xlink:href="#block"/><use x="146.7346938776" y="272.4489795918" xlink:href="#block"/><use x="164.6938775510" y="272.4489795918" xlink:href="#block"/><use x="173.6734693878" y="272.4489795918" xlink:href="#block"/><use x="209.5918367347" y="272.4489795918" xlink:href="#block"/><use x="227.5510204082" y="272.4489795918" xlink:href="#block"/><use x="236.5306122449" y="272.4489795918" xlink:href="#block"/><use x="245.5102040816" y="272.4489795918" xlink:href="#block"/><use x="263.4693877551" y="272.4489795918" xlink:href="#block"/><use x="281.4285714286" y="272.4489795918" xlink:href="#block"/><use x="290.4081632653" y="272.4489795918" xlink:href="#block"/><use x="299.3877551020" y="272.4489795918" xlink:href="#block"/><use x="344.2857142857" y="272.4489795918" xlink:href="#block"/><use x="362.2448979592" y="272.4489795918" xlink:href="#block"/><use x="380.2040816327" y="272.4489795918" xlink:href="#block"/><use x="407.1428571429" y="272.4489795918" xlink:href="#block"/><use x="416.1224489796" y="272.4489795918" xlink:href="#block"/><use x="452.0408163265" y="272.4489795918" xlink:href="#block"/><use x="30.0000000000" y="281.4285714286" xlink:href="#block"/><use x="38.9795918367" y="281.4285714286" xlink:href="#block"/><use x="47.9591836735" y="281.4285714286" xlink:href="#block"/><use x="65.9183673469" y="281.4285714286" xlink:href="#block"/><use x="74.8979591837" y="281.4285714286" xlink:href="#block"/><use x="83.8775510204" y="281.4285714286" xlink:href="#block"/><use x="92.8571428571" y="281.4285714286" xlink:href="#block"/><use x="101.8367346939" y="281.4285714286" xlink:href="#block"/><use x="110.8163265306" y="281.4285714286" xlink:href="#block"/><use x="128.7755102041" y="281.4285714286" xlink:href="#block"/><use x="137.7551020408" y="281.4285714286" xlink:href="#block"/><use x="155.7142857143" y="281.4285714286" xlink:href="#block"/><use x="173.6734693878" y="281.4285714286" xlink:href="#block"/><use x="182.6530612245" y="281.4285714286" xlink:href="#block"/><use x="191.6326530612" y="281.4285714286" xlink:href="#block"/><use x="200.6122448980" y="281.4285714286" xlink:href="#block"/><use x="218.5714285714" y="281.4285714286" xlink:href="#block"/><use x="236.5306122449" y="281.4285714286" xlink:href="#block"/><use x="245.5102040816" y="281.4285714286" xlink:href="#block"/><use x="254.4897959184" y="281.4285714286" xlink:href="#block"/><use x="317.3469387755" y="281.4285714286" xlink:href="#block"/><use x="335.3061224490" y="281.4285714286" xlink:href="#block"/><use x="353.2653061224" y="281.4285714286" xlink:href="#block"/><use x="362.2448979592" y="281.4285714286" xlink:href="#block"/><use x="389.1836734694" y="281.4285714286" xlink:href="#block"/><use x="434.0816326531" y="281.4285714286" xlink:href="#block"/><use x="443.0612244898" y="281.4285714286" xlink:href="#block"/><use x="452.0408163265" y="281.4285714286" xlink:href="#block"/><use x="30.0000000000" y="290.4081632653" xlink:href="#block"/><use x="47.9591836735" y="290.4081632653" xlink:href="#block"/><use x="56.9387755102" y="290.4081632653" xlink:href="#block"/><use x="92.8571428571" y="290.4081632653" xlink:href="#block"/><use x="101.8367346939" y="290.4081632653" xlink:href="#block"/><use x="110.8163265306" y="290.4081632653" xlink:href="#block"/><use x="119.7959183673" y="290.4081632653" xlink:href="#block"/><use x="137.7551020408" y="290.4081632653" xlink:href="#block"/><use x="155.7142857143" y="290.4081632653" xlink:href="#block"/><use x="164.6938775510" y="290.4081632653" xlink:href="#block"/><use x="191.6326530612" y="290.4081632653" xlink:href="#block"/><use x="200.6122448980" y="290.4081632653" xlink:href="#block"/><use x="218.5714285714" y="290.4081632653" xlink:href="#block"/><use x="227.5510204082" y="290.4081632653" xlink:href="#block"/><use x="236.5306122449" y="290.4081632653" xlink:href="#block"/><use x="263.4693877551" y="290.4081632653" xlink:href="#block"/><use x="281.4285714286" y="290.4081632653" xlink:href="#block"/><use x="317.3469387755" y="290.4081632653" xlink:href="#block"/><use x="335.3061224490" y="290.4081632653" xlink:href="#block"/><use x="353.2653061224" y="290.4081632653" xlink:href="#block"/><use x="362.2448979592" y="290.4081632653" xlink:href="#block"/><use x="380.2040816327" y="290.4081632653" xlink:href="#block"/><use x="389.1836734694" y="290.4081632653" xlink:href="#block"/><use x="407.1428571429" y="290.4081632653" xlink:href="#block"/><use x="416.1224489796" y="290.4081632653" xlink:href="#block"/><use x="443.0612244898" y="290.4081632653" xlink:href="#block"/><use x="38.9795918367" y="299.3877551020" xlink:href="#block"/><use x="56.9387755102" y="299.3877551020" xlink:href="#block"/><use x="83.8775510204" y="299.3877551020" xlink:href="#block"/><use x="92.8571428571" y="299.3877551020" xlink:href="#block"/><use x="128.7755102041" y="299.3877551020" xlink:href="#block"/><use x="155.7142857143" y="299.3877551020" xlink:href="#block"/><use x="173.6734693878" y="299.3877551020" xlink:href="#block"/><use x="182.6530612245" y="299.3877551020" xlink:href="#block"/><use x="191.6326530612" y="299.3877551020" xlink:href="#block"/><use x="200.6122448980" y="299.3877551020" xlink:href="#block"/><use x="245.5102040816" y="299.3877551020" xlink:href="#block"/><use x="254.4897959184" y="299.3877551020" xlink:href="#block"/><use x="272.4489795918" y="299.3877551020" xlink:href="#block"/><use x="290.4081632653" y="299.3877551020" xlink:href="#block"/><use x="299.3877551020" y="299.3877551020" xlink:href="#block"/><use x="353.2653061224" y="299.3877551020" xlink:href="#block"/><use x="380.2040816327" y="299.3877551020" xlink:href="#block"/><use x="389.1836734694" y="299.3877551020" xlink:href="#block"/><use x="416.1224489796" y="299.3877551020" xlink:href="#block"/><use x="425.1020408163" y="299.3877551020" xlink:href="#block"/><use x="434.0816326531" y="299.3877551020" xlink:href="#block"/><use x="443.0612244898" y="299.3877551020" xlink:href="#block"/><use x="452.0408163265" y="299.3877551020" xlink:href="#block"/><use x="30.0000000000" y="308.3673469388" xlink:href="#block"/><use x="38.9795918367" y="308.3673469388" xlink:href="#block"/><use x="47.9591836735" y="308.3673469388" xlink:href="#block"/><use x="56.9387755102" y="308.3673469388" xlink:href="#block"/><use x="74.8979591837" y="308.3673469388" xlink:href="#block"/><use x="92.8571428571" y="308.3673469388" xlink:href="#block"/><use x="101.8367346939" y="308.3673469388" xlink:href="#block"/><use x="119.7959183673" y="308.3673469388" xlink:href="#block"/><use x="128.7755102041" y="308.3673469388" xlink:href="#block"/><use x="137.7551020408" y="308.3673469388" xlink:href="#block"/><use x="146.7346938776" y="308.3673469388" xlink:href="#block"/><use x="164.6938775510" y="308.3673469388" xlink:href="#block"/><use x="173.6734693878" y="308.3673469388" xlink:href="#block"/><use x="191.6326530612" y="308.3673469388" xlink:href="#block"/><use x="227.5510204082" y="308.3673469388" xlink:href="#block"/><use x="236.5306122449" y="308.3673469388" xlink:href="#block"/><use x="245.5102040816" y="308.3673469388" xlink:href="#block"/><use x="254.4897959184" y="308.3673469388" xlink:href="#block"/><use x="263.4693877551" y="308.3673469388" xlink:href="#block"/><use x="299.3877551020" y="308.3673469388" xlink:href="#block"/><use x="308.3673469388" y="308.3673469388" xlink:href="#block"/><use x="317.3469387755" y="308.3673469388" xlink:href="#block"/><use x="326.3265306122" y="308.3673469388" xlink:href="#block"/><use x="344.2857142857" y="308.3673469388" xlink:href="#block"/><use x="362.2448979592" y="308.3673469388" xlink:href="#block"/><use x="371.2244897959" y="308.3673469388" xlink:href="#block"/><use x="380.2040816327" y="308.3673469388" xlink:href="#block"/><use x="425.1020408163" y="308.3673469388" xlink:href="#block"/><use x="434.0816326531" y="308.3673469388" xlink:href="#block"/><use x="443.0612244898" y="308.3673469388" xlink:href="#block"/><use x="452.0408163265" y="308.3673469388" xlink:href="#block"/><use x="461.0204081633" y="308.3673469388" xlink:href="#block"/><use x="30.0000000000" y="317.3469387755" xlink:href="#block"/><use x="38.9795918367" y="317.3469387755" xlink:href="#block"/><use x="56.9387755102" y="317.3469387755" xlink:href="#block"/><use x="65.9183673469" y="317.3469387755" xlink:href="#block"/><use x="74.8979591837" y="317.3469387755" xlink:href="#block"/><use x="83.8775510204" y="317.3469387755" xlink:href="#block"/><use x="101.8367346939" y="317.3469387755" xlink:href="#block"/><use x="110.8163265306" y="317.3469387755" xlink:href="#block"/><use x="146.7346938776" y="317.3469387755" xlink:href="#block"/><use x="164.6938775510" y="317.3469387755" xlink:href="#block"/><use x="182.6530612245" y="317.3469387755" xlink:href="#block"/><use x="200.6122448980" y="317.3469387755" xlink:href="#block"/><use x="209.5918367347" y="317.3469387755" xlink:href="#block"/><use x="254.4897959184" y="317.3469387755" xlink:href="#block"/><use x="263.4693877551" y="317.3469387755" xlink:href="#block"/><use x="281.4285714286" y="317.3469387755" xlink:href="#block"/><use x="299.3877551020" y="317.3469387755" xlink:href="#block"/><use x="308.3673469388" y="317.3469387755" xlink:href="#block"/><use x="326.3265306122" y="317.3469387755" xlink:href="#block"/><use x="380.2040816327" y="317.3469387755" xlink:href="#block"/><use x="389.1836734694" y="317.3469387755" xlink:href="#block"/><use x="398.1632653061" y="317.3469387755" xlink:href="#block"/><use x="416.1224489796" y="317.3469387755" xlink:href="#block"/><use x="425.1020408163" y="317.3469387755" xlink:href="#block"/><use x="434.0816326531" y="317.3469387755" xlink:href="#block"/><use x="452.0408163265" y="317.3469387755" xlink:href="#block"/><use x="30.0000000000" y="326.3265306122" xlink:href="#block"/><use x="38.9795918367" y="326.3265306122" xlink:href="#block"/><use x="47.9591836735" y="326.3265306122" xlink:href="#block"/><use x="92.8571428571" y="326.3265306122" xlink:href="#block"/><use x="119.7959183673" y="326.3265306122" xlink:href="#block"/><use x="128.7755102041" y="326.3265306122" xlink:href="#block"/><use x="137.7551020408" y="326.3265306122" xlink:href="#block"/><use x="146.7346938776" y="326.3265306122" xlink:href="#block"/><use x="191.6326530612" y="326.3265306122" xlink:href="#block"/><use x="209.5918367347" y="326.3265306122" xlink:href="#block"/><use x="218.5714285714" y="326.3265306122" xlink:href="#block"/><use x="227.5510204082" y="326.3265306122" xlink:href="#block"/><use x="236.5306122449" y="326.3265306122" xlink:href="#block"/><use x="245.5102040816" y="326.3265306122" xlink:href="#block"/><use x="254.4897959184" y="326.3265306122" xlink:href="#block"/><use x="272.4489795918" y="326.3265306122" xlink:href="#block"/><use x="281.4285714286" y="326.3265306122" xlink:href="#block"/><use x="299.3877551020" y="326.3265306122" xlink:href="#block"/><use x="308.3673469388" y="326.3265306122" xlink:href="#block"/><use x="326.3265306122" y="326.3265306122" xlink:href="#block"/><use x="353.2653061224" y="326.3265306122" xlink:href="#block"/><use x="389.1836734694" y="326.3265306122" xlink:href="#block"/><use x="416.1224489796" y="326.3265306122" xlink:href="#block"/><use x="425.1020408163" y="326.3265306122" xlink:href="#block"/><use x="47.9591836735" y="335.3061224490" xlink:href="#block"/><use x="65.9183673469" y="335.3061224490" xlink:href="#block"/><use x="74.8979591837" y="335.3061224490" xlink:href="#block"/><use x="83.8775510204" y="335.3061224490" xlink:href="#block"/><use x="92.8571428571" y="335.3061224490" xlink:href="#block"/><use x="128.7755102041" y="335.3061224490" xlink:href="#block"/><use x="137.7551020408" y="335.3061224490" xlink:href="#block"/><use x="146.7346938776" y="335.3061224490" xlink:href="#block"/><use x="155.7142857143" y="335.3061224490" xlink:href="#block"/><use x="209.5918367347" y="335.3061224490" xlink:href="#block"/><use x="218.5714285714" y="335.3061224490" xlink:href="#block"/><use x="236.5306122449" y="335.3061224490" xlink:href="#block"/><use x="281.4285714286" y="335.3061224490" xlink:href="#block"/><use x="317.3469387755" y="335.3061224490" xlink:href="#block"/><use x="335.3061224490" y="335.3061224490" xlink:href="#block"/><use x="344.2857142857" y="335.3061224490" xlink:href="#block"/><use x="389.1836734694" y="335.3061224490" xlink:href="#block"/><use x="398.1632653061" y="335.3061224490" xlink:href="#block"/><use x="407.1428571429" y="335.3061224490" xlink:href="#block"/><use x="443.0612244898" y="335.3061224490" xlink:href="#block"/><use x="452.0408163265" y="335.3061224490" xlink:href="#block"/><use x="30.0000000000" y="344.2857142857" xlink:href="#block"/><use x="38.9795918367" y="344.2857142857" xlink:href="#block"/><use x="56.9387755102" y="344.2857142857" xlink:href="#block"/><use x="110.8163265306" y="344.2857142857" xlink:href="#block"/><use x="119.7959183673" y="344.2857142857" xlink:href="#block"/><use x="128.7755102041" y="344.2857142857" xlink:href="#block"/><use x="146.7346938776" y="344.2857142857" xlink:href="#block"/><use x="164.6938775510" y="344.2857142857" xlink:href="#block"/><use x="173.6734693878" y="344.2857142857" xlink:href="#block"/><use x="191.6326530612" y="344.2857142857" xlink:href="#block"/><use x="200.6122448980" y="344.2857142857" xlink:href="#block"/><use x="209.5918367347" y="344.2857142857" xlink:href="#block"/><use x="218.5714285714" y="344.2857142857" xlink:href="#block"/><use x="227.5510204082" y="344.2857142857" xlink:href="#block"/><use x="236.5306122449" y="344.2857142857" xlink:href="#block"/><use x="245.5102040816" y="344.2857142857" xlink:href="#block"/><use x="254.4897959184" y="344.2857142857" xlink:href="#block"/><use x="272.4489795918" y="344.2857142857" xlink:href="#block"/><use x="281.4285714286" y="344.2857142857" xlink:href="#block"/><use x="299.3877551020" y="344.2857142857" xlink:href="#block"/><use x="308.3673469388" y="344.2857142857" xlink:href="#block"/><use x="317.3469387755" y="344.2857142857" xlink:href="#block"/><use x="335.3061224490" y="344.2857142857" xlink:href="#block"/><use x="344.2857142857" y="344.2857142857" xlink:href="#block"/><use x="353.2653061224" y="344.2857142857" xlink:href="#block"/><use x="380.2040816327" y="344.2857142857" xlink:href="#block"/><use x="389.1836734694" y="344.2857142857" xlink:href="#block"/><use x="398.1632653061" y="344.2857142857" xlink:href="#block"/><use x="452.0408163265" y="344.2857142857" xlink:href="#block"/><use x="461.0204081633" y="344.2857142857" xlink:href="#block"/><use x="30.0000000000" y="353.2653061224" xlink:href="#block"/><use x="38.9795918367" y="353.2653061224" xlink:href="#block"/><use x="56.9387755102" y="353.2653061224" xlink:href="#block"/><use x="65.9183673469" y="353.2653061224" xlink:href="#block"/><use x="74.8979591837" y="353.2653061224" xlink:href="#block"/><use x="83.8775510204" y="353.2653061224" xlink:href="#block"/><use x="146.7346938776" y="353.2653061224" xlink:href="#block"/><use x="173.6734693878" y="353.2653061224" xlink:href="#block"/><use x="182.6530612245" y="353.2653061224" xlink:href="#block"/><use x="191.6326530612" y="353.2653061224" xlink:href="#block"/><use x="209.5918367347" y="353.2653061224" xlink:href="#block"/><use x="218.5714285714" y="353.2653061224" xlink:href="#block"/><use x="245.5102040816" y="353.2653061224" xlink:href="#block"/><use x="254.4897959184" y="353.2653061224" xlink:href="#block"/><use x="263.4693877551" y="353.2653061224" xlink:href="#block"/><use x="272.4489795918" y="353.2653061224" xlink:href="#block"/><use x="290.4081632653" y="353.2653061224" xlink:href="#block"/><use x="299.3877551020" y="353.2653061224" xlink:href="#block"/><use x="308.3673469388" y="353.2653061224" xlink:href="#block"/><use x="335.3061224490" y="353.2653061224" xlink:href="#block"/><use x="344.2857142857" y="353.2653061224" xlink:href="#block"/><use x="371.2244897959" y="353.2653061224" xlink:href="#block"/><use x="407.1428571429" y="353.2653061224" xlink:href="#block"/><use x="425.1020408163" y="353.2653061224" xlink:href="#block"/><use x="452.0408163265" y="353.2653061224" xlink:href="#block"/><use x="461.0204081633" y="353.2653061224" xlink:href="#block"/><use x="30.0000000000" y="362.2448979592" xlink:href="#block"/><use x="38.9795918367" y="362.2448979592" xlink:href="#block"/><use x="92.8571428571" y="362.2448979592" xlink:href="#block"/><use x="101.8367346939" y="362.2448979592" xlink:href="#block"/><use x="128.7755102041" y="362.2448979592" xlink:href="#block"/><use x="137.7551020408" y="362.2448979592" xlink:href="#block"/><use x="164.6938775510" y="362.2448979592" xlink:href="#block"/><use x="182.6530612245" y="362.2448979592" xlink:href="#block"/><use x="191.6326530612" y="362.2448979592" xlink:href="#block"/><use x="236.5306122449" y="362.2448979592" xlink:href="#block"/><use x="245.5102040816" y="362.2448979592" xlink:href="#block"/><use x="290.4081632653" y="362.2448979592" xlink:href="#block"/><use x="308.3673469388" y="362.2448979592" xlink:href="#block"/><use x="353.2653061224" y="362.2448979592" xlink:href="#block"/><use x="362.2448979592" y="362.2448979592" xlink:href="#block"/><use x="371.2244897959" y="362.2448979592" xlink:href="#block"/><use x="380.2040816327" y="362.2448979592" xlink:href="#block"/><use x="389.1836734694" y="362.2448979592" xlink:href="#block"/><use x="407.1428571429" y="362.2448979592" xlink:href="#block"/><use x="416.1224489796" y="362.2448979592" xlink:href="#block"/><use x="425.1020408163" y="362.2448979592" xlink:href="#block"/><use x="461.0204081633" y="362.2448979592" xlink:href="#block"/><use x="38.9795918367" y="371.2244897959" xlink:href="#block"/><use x="74.8979591837" y="371.2244897959" xlink:href="#block"/><use x="83.8775510204" y="371.2244897959" xlink:href="#block"/><use x="101.8367346939" y="371.2244897959" xlink:href="#block"/><use x="110.8163265306" y="371.2244897959" xlink:href="#block"/><use x="119.7959183673" y="371.2244897959" xlink:href="#block"/><use x="137.7551020408" y="371.2244897959" xlink:href="#block"/><use x="146.7346938776" y="371.2244897959" xlink:href="#block"/><use x="191.6326530612" y="371.2244897959" xlink:href="#block"/><use x="200.6122448980" y="371.2244897959" xlink:href="#block"/><use x="209.5918367347" y="371.2244897959" xlink:href="#block"/><use x="227.5510204082" y="371.2244897959" xlink:href="#block"/><use x="236.5306122449" y="371.2244897959" xlink:href="#block"/><use x="263.4693877551" y="371.2244897959" xlink:href="#block"/><use x="299.3877551020" y="371.2244897959" xlink:href="#block"/><use x="308.3673469388" y="371.2244897959" xlink:href="#block"/><use x="326.3265306122" y="371.2244897959" xlink:href="#block"/><use x="335.3061224490" y="371.2244897959" xlink:href="#block"/><use x="362.2448979592" y="371.2244897959" xlink:href="#block"/><use x="371.2244897959" y="371.2244897959" xlink:href="#block"/><use x="389.1836734694" y="371.2244897959" xlink:href="#block"/><use x="398.1632653061" y="371.2244897959" xlink:href="#block"/><use x="425.1020408163" y="371.2244897959" xlink:href="#block"/><use x="434.0816326531" y="371.2244897959" xlink:href="#block"/><use x="452.0408163265" y="371.2244897959" xlink:href="#block"/><use x="461.0204081633" y="371.2244897959" xlink:href="#block"/><use x="38.9795918367" y="380.2040816327" xlink:href="#block"/><use x="47.9591836735" y="380.2040816327" xlink:href="#block"/><use x="56.9387755102" y="380.2040816327" xlink:href="#block"/><use x="92.8571428571" y="380.2040816327" xlink:href="#block"/><use x="128.7755102041" y="380.2040816327" xlink:href="#block"/><use x="137.7551020408" y="380.2040816327" xlink:href="#block"/><use x="155.7142857143" y="380.2040816327" xlink:href="#block"/><use x="173.6734693878" y="380.2040816327" xlink:href="#block"/><use x="182.6530612245" y="380.2040816327" xlink:href="#block"/><use x="191.6326530612" y="380.2040816327" xlink:href="#block"/><use x="200.6122448980" y="380.2040816327" xlink:href="#block"/><use x="209.5918367347" y="380.2040816327" xlink:href="#block"/><use x="218.5714285714" y="380.2040816327" xlink:href="#block"/><use x="245.5102040816" y="380.2040816327" xlink:href="#block"/><use x="263.4693877551" y="380.2040816327" xlink:href="#block"/><use x="272.4489795918" y="380.2040816327" xlink:href="#block"/><use x="299.3877551020" y="380.2040816327" xlink:href="#block"/><use x="308.3673469388" y="380.2040816327" xlink:href="#block"/><use x="317.3469387755" y="380.2040816327" xlink:href="#block"/><use x="335.3061224490" y="380.2040816327" xlink:href="#block"/><use x="344.2857142857" y="380.2040816327" xlink:href="#block"/><use x="353.2653061224" y="380.2040816327" xlink:href="#block"/><use x="380.2040816327" y="380.2040816327" xlink:href="#block"/><use x="434.0816326531" y="380.2040816327" xlink:href="#block"/><use x="30.0000000000" y="389.1836734694" xlink:href="#block"/><use x="38.9795918367" y="389.1836734694" xlink:href="#block"/><use x="47.9591836735" y="389.1836734694" xlink:href="#block"/><use x="83.8775510204" y="389.1836734694" xlink:href="#block"/><use x="101.8367346939" y="389.1836734694" xlink:href="#block"/><use x="110.8163265306" y="389.1836734694" xlink:href="#block"/><use x="119.7959183673" y="389.1836734694" xlink:href="#block"/><use x="128.7755102041" y="389.1836734694" xlink:href="#block"/><use x="137.7551020408" y="389.1836734694" xlink:href="#block"/><use x="146.7346938776" y="389.1836734694" xlink:href="#block"/><use x="155.7142857143" y="389.1836734694" xlink:href="#block"/><use x="164.6938775510" y="389.1836734694" xlink:href="#block"/><use x="173.6734693878" y="389.1836734694" xlink:href="#block"/><use x="191.6326530612" y="389.1836734694" xlink:href="#block"/><use x="209.5918367347" y="389.1836734694" xlink:href="#block"/><use x="227.5510204082" y="389.1836734694" xlink:href="#block"/><use x="236.5306122449" y="389.1836734694" xlink:href="#block"/><use x="245.5102040816" y="389.1836734694" xlink:href="#block"/><use x="254.4897959184" y="389.1836734694" xlink:href="#block"/><use x="263.4693877551" y="389.1836734694" xlink:href="#block"/><use x="281.4285714286" y="389.1836734694" xlink:href="#block"/><use x="308.3673469388" y="389.1836734694" xlink:href="#block"/><use x="335.3061224490" y="389.1836734694" xlink:href="#block"/><use x="344.2857142857" y="389.1836734694" xlink:href="#block"/><use x="353.2653061224" y="389.1836734694" xlink:href="#block"/><use x="362.2448979592" y="389.1836734694" xlink:href="#block"/><use x="389.1836734694" y="389.1836734694" xlink:href="#block"/><use x="398.1632653061" y="389.1836734694" xlink:href="#block"/><use x="407.1428571429" y="389.1836734694" xlink:href="#block"/><use x="416.1224489796" y="389.1836734694" xlink:href="#block"/><use x="425.1020408163" y="389.1836734694" xlink:href="#block"/><use x="434.0816326531" y="389.1836734694" xlink:href="#block"/><use x="443.0612244898" y="389.1836734694" xlink:href="#block"/><use x="101.8367346939" y="398.1632653061" xlink:href="#block"/><use x="110.8163265306" y="398.1632653061" xlink:href="#block"/><use x="128.7755102041" y="398.1632653061" xlink:href="#block"/><use x="137.7551020408" y="398.1632653061" xlink:href="#block"/><use x="146.7346938776" y="398.1632653061" xlink:href="#block"/><use x="191.6326530612" y="398.1632653061" xlink:href="#block"/><use x="227.5510204082" y="398.1632653061" xlink:href="#block"/><use x="263.4693877551" y="398.1632653061" xlink:href="#block"/><use x="272.4489795918" y="398.1632653061" xlink:href="#block"/><use x="281.4285714286" y="398.1632653061" xlink:href="#block"/><use x="299.3877551020" y="398.1632653061" xlink:href="#block"/><use x="308.3673469388" y="398.1632653061" xlink:href="#block"/><use x="317.3469387755" y="398.1632653061" xlink:href="#block"/><use x="326.3265306122" y="398.1632653061" xlink:href="#block"/><use x="353.2653061224" y="398.1632653061" xlink:href="#block"/><use x="380.2040816327" y="398.1632653061" xlink:href="#block"/><use x="389.1836734694" y="398.1632653061" xlink:href="#block"/><use x="425.1020408163" y="398.1632653061" xlink:href="#block"/><use x="434.0816326531" y="398.1632653061" xlink:href="#block"/><use x="443.0612244898" y="398.1632653061" xlink:href="#block"/><use x="452.0408163265" y="398.1632653061" xlink:href="#block"/><use x="461.0204081633" y="398.1632653061" xlink:href="#block"/><use x="30.0000000000" y="407.1428571429" xlink:href="#block"/><use x="38.9795918367" y="407.1428571429" xlink:href="#block"/><use x="47.9591836735" y="407.1428571429" xlink:href="#block"/><use x="56.9387755102" y="407.1428571429" xlink:href="#block"/><use x="65.9183673469" y="407.1428571429" xlink:href="#block"/><use x="74.8979591837" y="407.1428571429" xlink:href="#block"/><use x="83.8775510204" y="407.1428571429" xlink:href="#block"/><use x="101.8367346939" y="407.1428571429" xlink:href="#block"/><use x="128.7755102041" y="407.1428571429" xlink:href="#block"/><use x="155.7142857143" y="407.1428571429" xlink:href="#block"/><use x="164.6938775510" y="407.1428571429" xlink:href="#block"/><use x="173.6734693878" y="407.1428571429" xlink:href="#block"/><use x="191.6326530612" y="407.1428571429" xlink:href="#block"/><use x="200.6122448980" y="407.1428571429" xlink:href="#block"/><use x="227.5510204082" y="407.1428571429" xlink:href="#block"/><use x="245.5102040816" y="407.1428571429" xlink:href="#block"/><use x="263.4693877551" y="407.1428571429" xlink:href="#block"/><use x="290.4081632653" y="407.1428571429" xlink:href="#block"/><use x="308.3673469388" y="407.1428571429" xlink:href="#block"/><use x="326.3265306122" y="407.1428571429" xlink:href="#block"/><use x="344.2857142857" y="407.1428571429" xlink:href="#block"/><use x="353.2653061224" y="407.1428571429" xlink:href="#block"/><use x="362.2448979592" y="407.1428571429" xlink:href="#block"/><use x="371.2244897959" y="407.1428571429" xlink:href="#block"/><use x="389.1836734694" y="407.1428571429" xlink:href="#block"/><use x="407.1428571429" y="407.1428571429" xlink:href="#block"/><use x="425.1020408163" y="407.1428571429" xlink:href="#block"/><use x="434.0816326531" y="407.1428571429" xlink:href="#block"/><use x="443.0612244898" y="407.1428571429" xlink:href="#block"/><use x="452.0408163265" y="407.1428571429" xlink:href="#block"/><use x="30.0000000000" y="416.1224489796" xlink:href="#block"/><use x="83.8775510204" y="416.1224489796" xlink:href="#block"/><use x="110.8163265306" y="416.1224489796" xlink:href="#block"/><use x="128.7755102041" y="416.1224489796" xlink:href="#block"/><use x="137.7551020408" y="416.1224489796" xlink:href="#block"/><use x="164.6938775510" y="416.1224489796" xlink:href="#block"/><use x="182.6530612245" y="416.1224489796" xlink:href="#block"/><use x="191.6326530612" y="416.1224489796" xlink:href="#block"/><use x="200.6122448980" y="416.1224489796" xlink:href="#block"/><use x="227.5510204082" y="416.1224489796" xlink:href="#block"/><use x="263.4693877551" y="416.1224489796" xlink:href="#block"/><use x="281.4285714286" y="416.1224489796" xlink:href="#block"/><use x="308.3673469388" y="416.1224489796" xlink:href="#block"/><use x="326.3265306122" y="416.1224489796" xlink:href="#block"/><use x="371.2244897959" y="416.1224489796" xlink:href="#block"/><use x="380.2040816327" y="416.1224489796" xlink:href="#block"/><use x="389.1836734694" y="416.1224489796" xlink:href="#block"/><use x="425.1020408163" y="416.1224489796" xlink:href="#block"/><use x="443.0612244898" y="416.1224489796" xlink:href="#block"/><use x="452.0408163265" y="416.1224489796" xlink:href="#block"/><use x="461.0204081633" y="416.1224489796" xlink:href="#block"/><use x="30.0000000000" y="425.1020408163" xlink:href="#block"/><use x="47.9591836735" y="425.1020408163" xlink:href="#block"/><use x="56.9387755102" y="425.1020408163" xlink:href="#block"/><use x="65.9183673469" y="425.1020408163" xlink:href="#block"/><use x="83.8775510204" y="425.1020408163" xlink:href="#block"/><use x="137.7551020408" y="425.1020408163" xlink:href="#block"/><use x="146.7346938776" y="425.1020408163" xlink:href="#block"/><use x="155.7142857143" y="425.1020408163" xlink:href="#block"/><use x="209.5918367347" y="425.1020408163" xlink:href="#block"/><use x="218.5714285714" y="425.1020408163" xlink:href="#block"/><use x="227.5510204082" y="425.1020408163" xlink:href="#block"/><use x="236.5306122449" y="425.1020408163" xlink:href="#block"/><use x="245.5102040816" y="425.1020408163" xlink:href="#block"/><use x="254.4897959184" y="425.1020408163" xlink:href="#block"/><use x="263.4693877551" y="425.1020408163" xlink:href="#block"/><use x="299.3877551020" y="425.1020408163" xlink:href="#block"/><use x="317.3469387755" y="425.1020408163" xlink:href="#block"/><use x="344.2857142857" y="425.1020408163" xlink:href="#block"/><use x="362.2448979592" y="425.1020408163" xlink:href="#block"/><use x="371.2244897959" y="425.1020408163" xlink:href="#block"/><use x="389.1836734694" y="425.1020408163" xlink:href="#block"/><use x="398.1632653061" y="425.1020408163" xlink:href="#block"/><use x="407.1428571429" y="425.1020408163" xlink:href="#block"/><use x="416.1224489796" y="425.1020408163" xlink:href="#block"/><use x="425.1020408163" y="425.1020408163" xlink:href="#block"/><use x="443.0612244898" y="425.1020408163" xlink:href="#block"/><use x="452.0408163265" y="425.1020408163" xlink:href="#block"/><use x="30.0000000000" y="434.0816326531" xlink:href="#block"/><use x="47.9591836735" y="434.0816326531" xlink:href="#block"/><use x="56.9387755102" y="434.0816326531" xlink:href="#block"/><use x="65.9183673469" y="434.0816326531" xlink:href="#block"/><use x="83.8775510204" y="434.0816326531" xlink:href="#block"/><use x="101.8367346939" y="434.0816326531" xlink:href="#block"/><use x="137.7551020408" y="434.0816326531" xlink:href="#block"/><use x="164.6938775510" y="434.0816326531" xlink:href="#block"/><use x="236.5306122449" y="434.0816326531" xlink:href="#block"/><use x="254.4897959184" y="434.0816326531" xlink:href="#block"/><use x="263.4693877551" y="434.0816326531" xlink:href="#block"/><use x="281.4285714286" y="434.0816326531" xlink:href="#block"/><use x="317.3469387755" y="434.0816326531" xlink:href="#block"/><use x="335.3061224490" y="434.0816326531" xlink:href="#block"/><use x="362.2448979592" y="434.0816326531" xlink:href="#block"/><use x="371.2244897959" y="434.0816326531" xlink:href="#block"/><use x="380.2040816327" y="434.0816326531" xlink:href="#block"/><use x="389.1836734694" y="434.0816326531" xlink:href="#block"/><use x="407.1428571429" y="434.0816326531" xlink:href="#block"/><use x="416.1224489796" y="434.0816326531" xlink:href="#block"/><use x="425.1020408163" y="434.0816326531" xlink:href="#block"/><use x="434.0816326531" y="434.0816326531" xlink:href="#block"/><use x="452.0408163265" y="434.0816326531" xlink:href="#block"/><use x="461.0204081633" y="434.0816326531" xlink:href="#block"/><use x="30.0000000000" y="443.0612244898" xlink:href="#block"/><use x="47.9591836735" y="443.0612244898" xlink:href="#block"/><use x="56.9387755102" y="443.0612244898" xlink:href="#block"/><use x="65.9183673469" y="443.0612244898" xlink:href="#block"/><use x="83.8775510204" y="443.0612244898" xlink:href="#block"/><use x="101.8367346939" y="443.0612244898" xlink:href="#block"/><use x="110.8163265306" y="443.0612244898" xlink:href="#block"/><use x="128.7755102041" y="443.0612244898" xlink:href="#block"/><use x="146.7346938776" y="443.0612244898" xlink:href="#block"/><use x="173.6734693878" y="443.0612244898" xlink:href="#block"/><use x="191.6326530612" y="443.0612244898" xlink:href="#block"/><use x="227.5510204082" y="443.0612244898" xlink:href="#block"/><use x="245.5102040816" y="443.0612244898" xlink:href="#block"/><use x="254.4897959184" y="443.0612244898" xlink:href="#block"/><use x="263.4693877551" y="443.0612244898" xlink:href="#block"/><use x="272.4489795918" y="443.0612244898" xlink:href="#block"/><use x="281.4285714286" y="443.0612244898" xlink:href="#block"/><use x="290.4081632653" y="443.0612244898" xlink:href="#block"/><use x="299.3877551020" y="443.0612244898" xlink:href="#block"/><use x="317.3469387755" y="443.0612244898" xlink:href="#block"/><use x="362.2448979592" y="443.0612244898" xlink:href="#block"/><use x="398.1632653061" y="443.0612244898" xlink:href="#block"/><use x="407.1428571429" y="443.0612244898" xlink:href="#block"/><use x="416.1224489796" y="443.0612244898" xlink:href="#block"/><use x="443.0612244898" y="443.0612244898" xlink:href="#block"/><use x="452.0408163265" y="443.0612244898" xlink:href="#block"/><use x="30.0000000000" y="452.0408163265" xlink:href="#block"/><use x="83.8775510204" y="452.0408163265" xlink:href="#block"/><use x="119.7959183673" y="452.0408163265" xlink:href="#block"/><use x="128.7755102041" y="452.0408163265" xlink:href="#block"/><use x="137.7551020408" y="452.0408163265" xlink:href="#block"/><use x="146.7346938776" y="452.0408163265" xlink:href="#block"/><use x="155.7142857143" y="452.0408163265" xlink:href="#block"/><use x="173.6734693878" y="452.0408163265" xlink:href="#block"/><use x="182.6530612245" y="452.0408163265" xlink:href="#block"/><use x="209.5918367347" y="452.0408163265" xlink:href="#block"/><use x="218.5714285714" y="452.0408163265" xlink:href="#block"/><use x="227.5510204082" y="452.0408163265" xlink:href="#block"/><use x="236.5306122449" y="452.0408163265" xlink:href="#block"/><use x="245.5102040816" y="452.0408163265" xlink:href="#block"/><use x="263.4693877551" y="452.0408163265" xlink:href="#block"/><use x="272.4489795918" y="452.0408163265" xlink:href="#block"/><use x="281.4285714286" y="452.0408163265" xlink:href="#block"/><use x="299.3877551020" y="452.0408163265" xlink:href="#block"/><use x="308.3673469388" y="452.0408163265" xlink:href="#block"/><use x="317.3469387755" y="452.0408163265" xlink:href="#block"/><use x="335.3061224490" y="452.0408163265" xlink:href="#block"/><use x="344.2857142857" y="452.0408163265" xlink:href="#block"/><use x="380.2040816327" y="452.0408163265" xlink:href="#block"/><use x="398.1632653061" y="452.0408163265" xlink:href="#block"/><use x="407.1428571429" y="452.0408163265" xlink:href="#block"/><use x="416.1224489796" y="452.0408163265" xlink:href="#block"/><use x="425.1020408163" y="452.0408163265" xlink:href="#block"/><use x="434.0816326531" y="452.0408163265" xlink:href="#block"/><use x="452.0408163265" y="452.0408163265" xlink:href="#block"/><use x="461.0204081633" y="452.0408163265" xlink:href="#block"/><use x="30.0000000000" y="461.0204081633" xlink:href="#block"/><use x="38.9795918367" y="461.0204081633" xlink:href="#block"/><use x="47.9591836735" y="461.0204081633" xlink:href="#block"/><use x="56.9387755102" y="461.0204081633" xlink:href="#block"/><use x="65.9183673469" y="461.0204081633" xlink:href="#block"/><use x="74.8979591837" y="461.0204081633" xlink:href="#block"/><use x="83.8775510204" y="461.0204081633" xlink:href="#block"/><use x="119.7959183673" y="461.0204081633" xlink:href="#block"/><use x="146.7346938776" y="461.0204081633" xlink:href="#block"/><use x="155.7142857143" y="461.0204081633" xlink:href="#block"/><use x="182.6530612245" y="461.0204081633" xlink:href="#block"/><use x="191.6326530612" y="461.0204081633" xlink:href="#block"/><use x="200.6122448980" y="461.0204081633" xlink:href="#block"/><use x="209.5918367347" y="461.0204081633" xlink:href="#block"/><use x="218.5714285714" y="461.0204081633" xlink:href="#block"/><use x="236.5306122449" y="461.0204081633" xlink:href="#block"/><use x="281.4285714286" y="461.0204081633" xlink:href="#block"/><use x="299.3877551020" y="461.0204081633" xlink:href="#block"/><use x="308.3673469388" y="461.0204081633" xlink:href="#block"/><use x="317.3469387755" y="461.0204081633" xlink:href="#block"/><use x="326.3265306122" y="461.0204081633" xlink:href="#block"/><use x="335.3061224490" y="461.0204081633" xlink:href="#block"/><use x="344.2857142857" y="461.0204081633" xlink:href="#block"/><use x="353.2653061224" y="461.0204081633" xlink:href="#block"/><use x="371.2244897959" y="461.0204081633" xlink:href="#block"/><use x="380.2040816327" y="461.0204081633" xlink:href="#block"/><use x="434.0816326531" y="461.0204081633" xlink:href="#block"/><use x="443.0612244898" y="461.0204081633" xlink:href="#block"/><use x="452.0408163265" y="461.0204081633" xlink:href="#block"/><use x="461.0204081633" y="461.0204081633" xlink:href="#block"/></svg>
